<?xml version="1.0" encoding="utf-8"?>
<!-- Generator: Adobe Illustrator 23.0.1, SVG Export Plug-In . SVG Version: 6.00 Build 0)  -->
<svg version="1.1" id="Layer_1" xmlns="http://www.w3.org/2000/svg" xmlns:xlink="http://www.w3.org/1999/xlink" x="0px" y="0px"
	 viewBox="0 0 100 100" style="enable-background:new 0 0 100 100;" xml:space="preserve">
<style type="text/css">
	.st0{fill:#FFFFFF;stroke:#FFABAB;stroke-width:5;stroke-linecap:round;stroke-linejoin:round;stroke-miterlimit:10;}
	.st1{fill:#FFABAB;stroke:#FFABAB;stroke-width:5;stroke-linecap:round;stroke-linejoin:round;stroke-miterlimit:10;}
</style>
<g>
	<path class="st0" d="M33,13C24.6,33.3,15.8,53.4,6.4,73.2c0.5-4.6,3-8.8,5.7-12.6c3.6-4.9,7.8-9.4,13-12.7
		c5.1-3.3,11.2-5.2,17.3-4.8c2,0.1,4.1,0.6,5.7,1.7c3.6,2.5,4.2,7.4,4,11.8s-1.1,8.9,0.6,12.9c2.2,5.3,8.5,8.1,14.3,7.7
		s11-3.4,15.6-6.9c2.4-1.8,4.8-3.9,6.3-6.5c1.6-2.6,2.2-5.9,1.1-8.8"/>
	<g>
		<path class="st1" d="M30.8,12.4C22.5,32.5,13.7,52.4,4.5,72c1.4,0.6,2.8,1.2,4.1,1.7c1.9-12.6,15.4-25.6,27.8-28
			c3.8-0.7,9-1,11.6,2.3c1.9,2.4,1.9,5.7,1.8,8.6c-0.2,5.4-1.3,10.9,1.8,15.7c5.1,8.1,16,8.4,24,4.8c8.6-3.9,19.6-12.1,16.6-22.8
			c-0.8-2.8-5.2-1.6-4.4,1.2c2.1,7.5-6,13.1-11.7,16.2c-5.7,3.2-13.3,4.8-18.8,0.2C49,65,58.9,51.2,50.2,43.7
			c-7.5-6.5-20.6-1.6-27.6,3.2C14.4,52.6,5.8,62.4,4.2,72.6c-0.3,2.3,2.9,4.3,4.1,1.7c9.4-20,18.4-40.3,26.8-60.7
			C36.3,10.9,31.9,9.7,30.8,12.4L30.8,12.4z"/>
	</g>
</g>
<g>
	<path class="st0" d="M86.1,38.6c-1.2,1.7,0.5,4.5,1.5,5.6c0.6,0.7,1.1,0.9,1.5,0.9c0.8,0.1,1.6-0.2,2.1-0.8s0.8-1.3,1.1-2.1
		c0.3-0.9,0.5-1.9,0.4-2.8c0-0.2-0.4-1.6-1.6-2.2c-0.6-0.3-1.2-0.2-1.9-0.1C88.1,37.5,86.8,37.7,86.1,38.6z"/>
</g>
</svg>
